<svg width="32" height="32" viewBox="0 0 32 32" fill="none" xmlns="http://www.w3.org/2000/svg">
  <rect width="32" height="32" rx="8" fill="#FFC700"/>
  <path d="M8 16C8 11.5817 11.5817 8 16 8V8C20.4183 8 24 11.5817 24 16V16C24 20.4183 20.4183 24 16 24V24C11.5817 24 8 20.4183 8 16V16Z" fill="#000000"/>
  <path d="M13 14C13 12.8954 13.8954 12 15 12V12C16.1046 12 17 12.8954 17 14V14C17 15.1046 16.1046 16 15 16V16C13.8954 16 13 15.1046 13 14V14Z" fill="#FFFFFF"/>
  <path d="M19 18C19 16.8954 19.8954 16 21 16V16C22.1046 16 23 16.8954 23 18V18C23 19.1046 22.1046 20 21 20V20C19.8954 20 19 19.1046 19 18V18Z" fill="#FFFFFF"/>
  <path d="M6 15L2 13M26 15L30 13" stroke="#000000" stroke-width="2" stroke-linecap="round"/>
  <path d="M6 19L2 21M26 19L30 21" stroke="#000000" stroke-width="2" stroke-linecap="round"/>
</svg>